
<svg width="112px" height="87px" viewBox="0 0 112 87" version="1.1" xmlns="http://www.w3.org/2000/svg" xmlns:xlink="http://www.w3.org/1999/xlink">
    <g id="Page-1" stroke="none" stroke-width="1" fill="none" fill-rule="evenodd">
        <g id="iconbasico">
            <g id="Group" transform="translate(0.000000, 55.000000)" fill="#101010">
                <path d="M17.8,24.2 C17.8,25.1 17.6,26 17.3,26.8 C17,27.6 16.5,28.3 15.9,28.9 C15.3,29.5 14.6,30 13.8,30.3 C13,30.6 12.1,30.8 11.2,30.8 L0,30.8 L0,8.7 L11.1,8.7 C12,8.7 12.9,8.9 13.7,9.2 C14.5,9.5 15.2,10 15.8,10.6 C16.4,11.2 16.9,11.9 17.2,12.7 C17.5,13.5 17.7,14.4 17.7,15.3 C17.7,15.7 17.6,16.1 17.5,16.6 C17.4,17.1 17.2,17.5 17,17.9 C16.8,18.3 16.5,18.7 16.3,19 C16,19.3 15.7,19.6 15.3,19.8 C15.7,20 16,20.3 16.3,20.6 C16.6,20.9 16.8,21.3 17,21.7 C17.2,22.1 17.4,22.5 17.5,23 C17.8,23.4 17.8,23.8 17.8,24.2 Z M4.5,17.6 L11.2,17.6 C11.5,17.6 11.8,17.5 12.1,17.4 C12.4,17.3 12.6,17.1 12.8,16.9 C13,16.7 13.2,16.5 13.3,16.2 C13.4,15.9 13.5,15.6 13.5,15.3 C13.5,15 13.4,14.7 13.3,14.4 C13.2,14.1 13,13.9 12.8,13.7 C12.6,13.5 12.4,13.3 12.1,13.2 C11.8,13.1 11.5,13 11.2,13 L4.5,13 L4.5,17.6 Z M4.5,26.5 L11.2,26.5 C11.5,26.5 11.8,26.4 12.1,26.3 C12.4,26.2 12.6,26 12.8,25.8 C13,25.6 13.2,25.4 13.3,25.1 C13.4,24.8 13.5,24.5 13.5,24.2 C13.5,23.9 13.4,23.6 13.3,23.3 C13.2,23 13,22.8 12.8,22.6 C12.6,22.4 12.4,22.2 12.1,22.1 C11.8,22 11.5,21.9 11.2,21.9 L4.5,21.9 L4.5,26.5 Z" id="Shape" fill-rule="nonzero"></path>
                <path d="M38.7,30.9 L34.3,30.9 L34.3,26.5 L25.4,26.5 L25.4,30.9 L21,30.9 L21,17.6 C21,16.4 21.2,15.2 21.7,14.1 C22.2,13 22.8,12.1 23.6,11.3 C24.4,10.5 25.3,9.9 26.4,9.4 C27.5,8.9 28.6,8.7 29.9,8.7 C31.2,8.7 32.3,8.9 33.4,9.4 C34.5,9.9 35.4,10.5 36.2,11.3 C37,12.1 37.6,13 38.1,14.1 C38.6,15.2 38.8,16.3 38.8,17.6 L38.8,30.9 L38.7,30.9 Z M34.3,22 L34.3,17.6 C34.3,17 34.2,16.4 34,15.9 C33.8,15.4 33.5,14.9 33,14.5 C32.6,14.1 32.1,13.8 31.6,13.5 C31.1,13.3 30.5,13.2 29.9,13.2 C29.3,13.2 28.7,13.3 28.2,13.5 C27.7,13.7 27.2,14 26.8,14.5 C26.4,14.9 26.1,15.4 25.8,15.9 C25.6,16.4 25.5,17 25.5,17.6 L25.5,22 L34.3,22 Z M29.9,7.4 L28.1,5.1 L32.7,0.8 L35.2,4 L29.9,7.4 Z" id="Shape" fill-rule="nonzero"></path>
                <path d="M41.3,15.3 C41.3,14.4 41.5,13.5 41.8,12.7 C42.2,11.9 42.6,11.2 43.2,10.6 C43.8,10 44.5,9.5 45.3,9.2 C46.1,8.9 47,8.7 47.9,8.7 L58.1,8.7 L58.1,13.1 L47.9,13.1 C47.6,13.1 47.3,13.2 47,13.3 C46.7,13.4 46.5,13.6 46.3,13.8 C46.1,14 45.9,14.2 45.8,14.5 C45.7,14.8 45.6,15.1 45.6,15.4 C45.6,15.7 45.7,16 45.8,16.3 C45.9,16.6 46.1,16.8 46.3,17 C46.5,17.2 46.7,17.4 47,17.5 C47.3,17.6 47.6,17.7 47.9,17.7 L52.3,17.7 C53.2,17.7 54.1,17.9 54.9,18.2 C55.7,18.5 56.4,19 57,19.6 C57.6,20.2 58.1,20.9 58.4,21.7 C58.7,22.5 58.9,23.4 58.9,24.3 C58.9,25.2 58.7,26.1 58.4,26.9 C58.1,27.7 57.6,28.4 57,29 C56.4,29.6 55.7,30.1 54.9,30.4 C54.1,30.8 53.2,30.9 52.3,30.9 L42.4,30.9 L42.4,26.5 L52.3,26.5 C52.6,26.5 52.9,26.4 53.2,26.3 C53.5,26.2 53.7,26 53.9,25.8 C54.1,25.6 54.3,25.4 54.4,25.1 C54.5,24.8 54.6,24.5 54.6,24.2 C54.6,23.9 54.5,23.6 54.4,23.3 C54.3,23 54.1,22.8 53.9,22.6 C53.7,22.4 53.5,22.2 53.2,22.1 C52.9,22 52.7,22 52.4,22 L48,22 C47.1,22 46.2,21.8 45.4,21.5 C44.6,21.2 43.9,20.7 43.3,20.1 C42.7,19.5 42.2,18.8 41.9,18 C41.4,17.1 41.3,16.3 41.3,15.3 Z" id="Path"></path>
                <polygon id="Path" points="66.4 30.9 62 30.9 62 8.7 66.4 8.7"></polygon>
                <path d="M88.3,28.6 C87.3,29.5 86.1,30.2 84.8,30.6 C83.5,31.1 82.2,31.3 80.8,31.3 C79.7,31.3 78.7,31.2 77.8,30.9 C76.8,30.6 75.9,30.2 75.1,29.7 C74.2,29.2 73.5,28.6 72.8,27.9 C72.1,27.2 71.5,26.4 71,25.6 C70.5,24.8 70.1,23.8 69.8,22.9 C69.5,21.9 69.4,20.9 69.4,19.9 C69.4,18.8 69.5,17.8 69.8,16.8 C70.1,15.8 70.5,14.9 71,14 C71.5,13.1 72.1,12.4 72.8,11.7 C73.5,11 74.3,10.4 75.1,9.9 C76,9.4 76.9,9 77.8,8.7 C78.8,8.4 79.8,8.3 80.8,8.3 C82.2,8.3 83.5,8.5 84.8,9 C86.1,9.5 87.2,10.2 88.3,11.1 L85.9,15 C85.2,14.3 84.5,13.8 83.6,13.4 C82.7,13 81.8,12.8 80.8,12.8 C79.8,12.8 78.9,13 78,13.4 C77.1,13.8 76.4,14.3 75.8,14.9 C75.2,15.5 74.7,16.3 74.3,17.1 C73.9,18 73.7,18.9 73.7,19.9 C73.7,20.9 73.9,21.8 74.3,22.6 C74.7,23.5 75.2,24.2 75.8,24.8 C76.4,25.4 77.2,25.9 78,26.3 C78.9,26.7 79.8,26.9 80.8,26.9 C81.8,26.9 82.7,26.7 83.6,26.3 C84.5,25.9 85.3,25.4 85.9,24.7 L88.3,28.6 Z" id="Path"></path>
                <path d="M112,19.9 C112,21 111.9,22 111.6,22.9 C111.3,23.9 110.9,24.8 110.4,25.6 C109.9,26.5 109.3,27.2 108.6,27.9 C107.9,28.6 107.1,29.2 106.3,29.7 C105.5,30.2 104.5,30.6 103.6,30.9 C102.7,31.2 101.6,31.3 100.5,31.3 C99.4,31.3 98.4,31.2 97.5,30.9 C96.5,30.6 95.6,30.2 94.8,29.7 C93.9,29.2 93.2,28.6 92.5,27.9 C91.8,27.2 91.2,26.4 90.7,25.6 C90.2,24.8 89.8,23.8 89.5,22.9 C89.2,21.9 89.1,20.9 89.1,19.9 C89.1,18.8 89.2,17.8 89.5,16.8 C89.8,15.8 90.2,14.9 90.7,14.1 C91.2,13.3 91.8,12.5 92.5,11.8 C93.2,11.1 94,10.5 94.8,10 C95.7,9.5 96.6,9.1 97.5,8.8 C98.5,8.5 99.5,8.4 100.5,8.4 C101.6,8.4 102.6,8.5 103.6,8.8 C104.6,9.1 105.5,9.5 106.3,10 C107.1,10.5 107.9,11.1 108.6,11.8 C109.3,12.5 109.9,13.3 110.4,14.1 C110.9,14.9 111.3,15.9 111.6,16.8 C111.9,17.7 112,18.8 112,19.9 Z M107.5,19.9 C107.5,18.9 107.3,18 106.9,17.1 C106.5,16.2 106,15.5 105.4,14.9 C104.8,14.3 104,13.8 103.2,13.4 C102.3,13 101.4,12.8 100.4,12.8 C99.4,12.8 98.5,13 97.6,13.4 C96.7,13.8 96,14.3 95.4,14.9 C94.8,15.5 94.3,16.3 93.9,17.1 C93.5,18 93.3,18.9 93.3,19.9 C93.3,20.9 93.5,21.8 93.9,22.6 C94.3,23.5 94.8,24.2 95.4,24.8 C96,25.4 96.8,25.9 97.6,26.3 C98.5,26.7 99.4,26.9 100.4,26.9 C101.4,26.9 102.3,26.7 103.2,26.3 C104.1,25.9 104.8,25.4 105.4,24.8 C106,24.2 106.5,23.4 106.9,22.6 C107.4,21.8 107.5,20.9 107.5,19.9 Z" id="Shape" fill-rule="nonzero"></path>
            </g>
            <g id="Group" transform="translate(31.000000, 0.000000)">
                <g transform="translate(1.000000, 26.000000)" fill="#FDD1A3" id="Path">
                    <path d="M30.2,21.7 L32.1,23.6 C32.1,23.6 39.8,18 42.2,15.7 C44.3,13.6 46,5.6 46.4,3.5 C46.5,3 46.5,2.4 46.4,1.9 C46.2,1.1 45.8,0.5 44.9,0.3 C43.7,0 42.5,0.7 42.2,1.9 L40.1,8.3"></path>
                    <path d="M38,13.9 L40,11.9 C41,10.9 41,9.4 40,8.4 C39,7.4 37.5,7.4 36.5,8.4 L33.7,11.2 C32.2,10.8 30.4,11.2 29.2,12.4 C29.2,12.4 29.1,12.5 29.1,12.5 C27.7,14 27.6,16.2 28.6,17.9 L28.7,18.1 C28.1,18.7 28.1,19.7 28.7,20.3 L30.1,21.7"></path>
                    <path d="M6.8,8.2 L4.7,1.8 C4.4,0.6 3.2,-0.1 2,0.2 C1.2,0.4 0.7,1.1 0.5,1.8 C0.4,2.3 0.4,2.9 0.5,3.4 C0.9,5.5 2.6,13.6 4.7,15.6 C7.1,18 14.8,23.5 14.8,23.5 L16.7,21.6"></path>
                    <path d="M8.7,13.9 L6.7,11.9 C5.7,10.9 5.7,9.4 6.7,8.4 C7.7,7.4 9.2,7.4 10.2,8.4 L13,11.2 C14.5,10.8 16.3,11.2 17.5,12.4 C17.5,12.4 17.6,12.5 17.6,12.5 C19,14 19.1,16.2 18.1,17.9 L18,18.2 C18.6,18.8 18.6,19.8 18,20.4 L16.6,21.8"></path>
                </g>
                <path d="M48.3,27.6 C48,26.4 47.2,25.6 46.2,25.3 C44.5,24.8 42.7,25.8 42.3,27.5 L40.5,32.9 C39.3,32.5 37.9,32.8 37,33.7 L34.5,36.2 C32.7,35.9 30.9,36.5 29.7,37.8 C29.7,37.8 29.6,37.9 29.6,37.9 C28,39.6 27.7,42.1 28.8,44.1 C28.3,45 28.5,46.2 29.3,47 L30.7,48.4 C30.7,48.4 30.7,48.4 30.7,48.4 L32.6,50.3 C32.8,50.5 33,50.6 33.3,50.6 C33.5,50.6 33.7,50.5 33.9,50.4 C34.2,50.2 41.7,44.8 44.1,42.4 C46.3,40.2 47.9,32.8 48.5,29.6 C48.5,28.9 48.5,28.2 48.3,27.6 Z M46.4,29.3 C45.5,33.8 44,39.6 42.5,41 C40.6,42.9 35.1,47 33.2,48.4 L31.9,47.1 C31.9,47.1 31.9,47.1 31.9,47.1 L30.5,45.7 C30.3,45.5 30.3,45.1 30.5,44.9 C30.8,44.6 30.9,44.1 30.6,43.7 L30.5,43.5 C29.7,42.2 29.8,40.4 30.9,39.3 C30.9,39.3 31,39.2 31,39.2 C31.9,38.3 33.3,37.9 34.5,38.2 C34.8,38.3 35.2,38.2 35.4,37.9 L38.2,35.1 C38.8,34.5 39.7,34.5 40.3,35.1 C40.9,35.7 40.9,36.6 40.3,37.2 L38.3,39.2 C37.9,39.6 37.9,40.2 38.3,40.6 C38.7,41 39.3,41 39.7,40.6 L41.7,38.6 C42.9,37.4 43,35.5 42,34.1 L44,28.1 C44,28.1 44,28.1 44,28 C44.2,27.3 44.9,26.9 45.6,27.1 C45.7,27.1 46.2,27.3 46.4,28 C46.5,28.4 46.5,28.8 46.4,29.3 Z" id="Shape" fill="#000000" fill-rule="nonzero"></path>
                <path d="M19.3,37.9 C19.3,37.9 19.2,37.8 19.2,37.8 C17.9,36.5 16.1,35.9 14.4,36.2 L11.9,33.7 C10.9,32.7 9.6,32.5 8.4,32.9 L6.6,27.5 C6.1,25.8 4.4,24.8 2.7,25.3 C1.6,25.6 0.9,26.4 0.6,27.6 C0.4,28.2 0.4,29 0.5,29.7 C1.1,32.8 2.8,40.3 4.9,42.5 C7.3,44.9 14.8,50.3 15.1,50.5 C15.3,50.6 15.5,50.7 15.7,50.7 C16,50.7 16.2,50.6 16.4,50.4 L19.7,47.1 C20.5,46.3 20.6,45.1 20.2,44.2 C21.2,42.1 20.9,39.6 19.3,37.9 Z M18.3,43.4 L18.2,43.6 C18,44 18,44.5 18.3,44.8 C18.5,45 18.5,45.4 18.3,45.6 L15.6,48.3 C13.7,46.9 8.2,42.8 6.3,40.9 C4.8,39.4 3.3,33.7 2.4,29.2 C2.3,28.8 2.3,28.4 2.4,28 C2.6,27.2 3,27.1 3.2,27.1 C3.9,26.9 4.6,27.3 4.8,28 C4.8,28 4.8,28 4.8,28.1 L6.8,34.1 C5.8,35.4 5.9,37.4 7.1,38.6 L9.1,40.6 C9.5,41 10.1,41 10.5,40.6 C10.9,40.2 10.9,39.6 10.5,39.2 L8.5,37.2 C7.9,36.6 7.9,35.7 8.5,35.1 C9.1,34.5 10,34.5 10.6,35.1 L13.4,37.9 C13.6,38.1 14,38.2 14.3,38.2 C15.6,37.9 16.9,38.3 17.8,39.2 C17.8,39.2 17.9,39.3 17.9,39.3 C19,40.3 19.1,42.1 18.3,43.4 Z" id="Shape" fill="#000000" fill-rule="nonzero"></path>
                <path d="M17.3,20.7 C16.6,20.9 16,21.1 15.5,21.5 C13.4,22.9 12.8,25.6 13.5,27.9 L14.8,32.9 L18.6,28.1" id="Path" fill="#4DBAF6"></path>
                <path d="M30.2,28.1 L34,33 L35.3,28 C36.1,25.7 35.4,22.9 33.3,21.6 C32.8,21.3 32.2,21 31.6,20.8" id="Path" fill="#4DBAF6"></path>
                <path d="M21,28.1 C20.7,28.7 20.5,29.3 20.5,30 C20.5,33.4 24.4,35.8 24.4,35.8 C24.4,35.8 28.3,33.4 28.3,30 C28.3,29.3 28.1,28.6 27.8,28.1 L21,28.1 Z" id="Path" fill="#F2484B"></path>
                <path d="M18.8,8.6 C18.2,9.8 17.7,11.2 17.3,12.8 C16.9,14.8 16.9,17.4 17.1,19.4 C17.1,19.4 18.7,28.1 18.7,28.1 L30.1,28.1 C30.1,28.1 31.6,20.7 31.7,19.9 C32.2,16.2 31.6,12 30.1,8.6" id="Path" fill="#FED271"></path>
                <path d="M30,8.6 C28.6,10.1 26.6,10.5 24.4,10.5 C22.2,10.5 20.1,10.1 18.8,8.6 C21,4.3 24.2,1.9 24.4,1.6 C26.2,2.9 28.7,5.8 30,8.6 Z" id="Path" fill="#DAE9EC"></path>
                <path d="M33.9,20.7 C33.5,20.4 33.1,20.2 32.7,20.1 C32.7,20.1 32.7,20 32.7,20 C32.7,20 32.7,20 32.7,20 C33.2,15.9 32.6,11.6 31,8.2 C31,8.1 30.9,8.1 30.9,8 C29.5,5 26.8,2.1 25.1,0.8 C24.7,0.5 24.2,0.6 23.9,0.9 C23.9,0.9 23.9,0.9 23.8,1 C21.4,2.9 19.4,5.5 18,8.2 C18,8.3 17.9,8.3 17.9,8.4 C17.2,9.8 16.7,11.2 16.4,12.6 C15.9,14.8 16,17.7 16.2,19.5 C16.2,19.5 16.2,19.5 16.2,19.5 C16.2,19.5 16.2,19.5 16.3,20 C15.8,20.2 15.4,20.4 15,20.7 C12.7,22.3 11.7,25.4 12.6,28.2 L13.9,33.2 C14,33.6 14.3,33.8 14.6,33.9 C14.7,33.9 14.7,33.9 14.8,33.9 C15.1,33.9 15.4,33.8 15.6,33.5 L19.2,29 L19.7,29 C19.6,29.3 19.6,29.6 19.6,29.9 C19.6,33.8 23.8,36.4 24,36.5 C24.2,36.6 24.3,36.6 24.5,36.6 C24.7,36.6 24.9,36.6 25,36.5 C25.2,36.4 29.4,33.8 29.4,29.9 C29.4,29.6 29.4,29.3 29.3,29 L29.8,29 L33.4,33.5 C33.6,33.7 33.9,33.9 34.2,33.9 C34.3,33.9 34.3,33.9 34.4,33.9 C34.8,33.8 35.1,33.6 35.1,33.2 L36.4,28.2 C37.2,25.4 36.2,22.3 33.9,20.7 Z M19.6,27.1 C19.2,25 18.2,19.7 18.1,19.2 C17.8,17.1 17.9,14.6 18.3,13 C18.5,12 18.8,11.1 19.2,10.2 C20.8,11.3 22.8,11.5 24.5,11.5 C26.1,11.5 28.1,11.3 29.8,10.2 C30.9,13.1 31.3,16.5 30.9,19.7 C30.8,20.3 30,24.7 29.5,27.1 L19.6,27.1 Z M24.4,2.8 C25.8,4 27.7,6.2 28.8,8.3 C27.8,9.1 26.5,9.4 24.4,9.4 C22.3,9.4 20.9,9.1 20,8.3 C21.1,6.3 22.6,4.4 24.4,2.8 Z M15.3,30.8 L14.5,27.7 C14.5,27.7 14.5,27.7 14.5,27.6 C13.8,25.6 14.5,23.3 16.1,22.3 C16.3,22.2 16.5,22.1 16.7,22 C16.9,23.2 17.3,25 17.8,27.8 L15.3,30.8 Z M27.3,30 C27.3,32.1 25.3,33.9 24.4,34.6 C23.4,33.9 21.5,32.1 21.5,30 C21.5,29.7 21.6,29.4 21.7,29.1 L27.2,29.1 C27.3,29.4 27.3,29.7 27.3,30 Z M34.4,27.7 C34.4,27.7 34.4,27.7 34.4,27.7 L33.6,30.9 L31.2,27.9 C31.4,26.8 32,24.1 32.3,22.1 C32.5,22.2 32.6,22.3 32.8,22.4 C34.4,23.4 35,25.6 34.4,27.7 Z" id="Shape" fill="#000000" fill-rule="nonzero"></path>
                <path d="M28.5,18.3 C28.5,20.6 26.6,22.5 24.3,22.5 C22,22.5 20.1,20.6 20.1,18.3 C20.1,16 22,14.1 24.3,14.1 C26.6,14.1 28.5,16 28.5,18.3 Z" id="Path" fill="#92D8F3"></path>
                <path d="M24.4,23.4 C21.6,23.4 19.3,21.1 19.3,18.3 C19.3,15.5 21.6,13.2 24.4,13.2 C27.2,13.2 29.5,15.5 29.5,18.3 C29.5,21.1 27.2,23.4 24.4,23.4 Z M24.4,15.1 C22.6,15.1 21.2,16.5 21.2,18.3 C21.2,20.1 22.6,21.5 24.4,21.5 C26.2,21.5 27.6,20.1 27.6,18.3 C27.6,16.5 26.1,15.1 24.4,15.1 Z" id="Shape" fill="#000000" fill-rule="nonzero"></path>
                <path d="M44.9,20.1 C44.4,20.1 44,19.7 43.9,19.2 C43.5,11.9 39.1,5.5 32.5,2.5 C32,2.3 31.8,1.7 32,1.2 C32.2,0.7 32.8,0.5 33.3,0.7 C36.8,2.3 39.8,4.9 42.1,8.1 C44.4,11.4 45.7,15.2 45.9,19.2 C45.9,19.7 45.5,20.1 44.9,20.1 C45,20.1 44.9,20.1 44.9,20.1 Z" id="Path" fill="#000000"></path>
                <path d="M44.8,23.6 C44.7,23.6 44.7,23.6 44.6,23.6 C44.5,23.6 44.5,23.6 44.4,23.5 C44.3,23.5 44.3,23.4 44.2,23.4 C44.1,23.4 44.1,23.3 44.1,23.3 C44.1,23.3 44,23.2 44,23.2 C44,23.1 43.9,23.1 43.9,23 C43.9,22.9 43.9,22.9 43.8,22.8 C43.8,22.7 43.8,22.7 43.8,22.6 C43.8,22.5 43.8,22.5 43.8,22.4 C43.8,22.3 43.8,22.3 43.9,22.2 C44,22.1 44,22.1 44,22 C44,21.9 44.1,21.9 44.1,21.9 C44.1,21.9 44.2,21.8 44.2,21.8 C44.3,21.8 44.3,21.7 44.4,21.7 C44.5,21.7 44.5,21.7 44.6,21.6 C44.9,21.5 45.3,21.6 45.5,21.9 C45.7,22.1 45.8,22.3 45.8,22.6 C45.8,22.7 45.8,22.7 45.8,22.8 C45.8,22.9 45.8,22.9 45.7,23 C45.7,23.1 45.6,23.1 45.6,23.2 C45.6,23.3 45.5,23.3 45.5,23.3 C45.5,23.3 45.4,23.4 45.4,23.4 C45.3,23.4 45.3,23.5 45.2,23.5 C45.1,23.5 45.1,23.5 45,23.6 C44.9,23.6 44.9,23.6 44.8,23.6 Z" id="Path" fill="#000000"></path>
                <path d="M3.9,20.1 C3.9,20.1 3.8,20.1 3.9,20.1 C3.3,20.1 2.9,19.6 2.9,19.1 C3.1,15.1 4.4,11.3 6.7,8 C8.9,4.8 11.9,2.3 15.5,0.6 C16,0.4 16.6,0.6 16.8,1.1 C17,1.6 16.8,2.2 16.3,2.4 C9.7,5.4 5.3,11.9 4.9,19.1 C4.8,19.7 4.4,20.1 3.9,20.1 Z" id="Path" fill="#000000"></path>
                <path d="M4,23.6 C3.9,23.6 3.9,23.6 3.8,23.6 C3.7,23.6 3.7,23.6 3.6,23.5 C3.5,23.5 3.5,23.4 3.4,23.4 C3.3,23.4 3.3,23.3 3.3,23.3 C3.3,23.3 3.2,23.2 3.2,23.2 C3.2,23.1 3.1,23.1 3.1,23 C3.1,22.9 3.1,22.9 3,22.8 C3,22.7 3,22.7 3,22.6 C3,22.5 3,22.5 3,22.4 C3,22.3 3,22.3 3.1,22.2 C3.2,22.1 3.2,22.1 3.2,22 C3.2,21.9 3.3,21.9 3.3,21.9 C3.3,21.9 3.4,21.8 3.4,21.8 C3.5,21.8 3.5,21.7 3.6,21.7 C3.7,21.7 3.7,21.7 3.8,21.6 C3.9,21.6 4.1,21.6 4.2,21.6 C4.3,21.6 4.3,21.6 4.4,21.7 C4.5,21.7 4.5,21.8 4.6,21.8 C4.7,21.8 4.7,21.9 4.7,21.9 C4.7,21.9 4.8,22 4.8,22 C4.8,22.1 4.9,22.1 4.9,22.2 C4.9,22.3 4.9,22.3 5,22.4 C5,22.5 5,22.5 5,22.6 C5,22.7 5,22.7 5,22.8 C5,22.9 5,22.9 4.9,23 C4.9,23.1 4.8,23.1 4.8,23.2 C4.8,23.3 4.7,23.3 4.7,23.3 C4.7,23.3 4.6,23.4 4.6,23.4 C4.5,23.4 4.5,23.5 4.4,23.5 C4.3,23.5 4.3,23.5 4.2,23.6 C4.1,23.6 4,23.6 4,23.6 Z" id="Path" fill="#000000"></path>
            </g>
        </g>
    </g>
</svg>
