
<svg width="184px" height="89px" viewBox="0 0 184 89" version="1.1" xmlns="http://www.w3.org/2000/svg" xmlns:xlink="http://www.w3.org/1999/xlink">
    <g id="Page-1" stroke="none" stroke-width="1" fill="none" fill-rule="evenodd">
        <g id="iconintermedio">
            <g id="Group" transform="translate(0.000000, 65.000000)" fill="#101010">
                <polygon id="Path" points="4.8 23 0.4 23 0.4 0.8 4.8 0.8"></polygon>
                <polygon id="Path" points="26.7 23 21.9 23 13.3 8.4 13.3 23 8.9 23 8.9 0.8 13.7 0.8 22.3 15.4 22.3 0.8 26.7 0.8 26.7 23"></polygon>
                <polygon id="Path" points="40.1 23 35.7 23 35.7 5.2 29 5.2 29 0.8 46.8 0.8 46.8 5.2 40.1 5.2 40.1 23"></polygon>
                <polygon id="Path" points="64.4 23 49.2 23 49.2 0.8 64.4 0.8 64.4 5.2 53.6 5.2 53.6 9.6 60.9 9.6 60.9 14 53.6 14 53.6 18.4 64.4 18.4"></polygon>
                <path d="M72,23 L67.6,23 L67.6,0.8 L76.5,0.8 C77.3,0.8 78.1,0.9 78.9,1.1 C79.7,1.3 80.4,1.6 81,2 C81.7,2.4 82.3,2.9 82.8,3.4 C83.3,3.9 83.8,4.5 84.2,5.2 C84.6,5.9 84.9,6.6 85.1,7.3 C85.3,8 85.4,8.8 85.4,9.7 C85.4,10.5 85.3,11.2 85.1,11.9 C84.9,12.6 84.6,13.3 84.3,14 C83.9,14.7 83.5,15.3 83,15.8 C82.5,16.3 81.9,16.8 81.3,17.2 L83.8,23 L79.1,23 L77.2,18.5 L72.2,18.5 L72.2,23 L72,23 Z M72,5.2 L72,14.1 L76.4,14.1 C77,14.1 77.6,14 78.1,13.8 C78.6,13.6 79.1,13.3 79.5,12.8 C79.9,12.4 80.2,11.9 80.5,11.4 C80.8,10.9 80.8,10.3 80.8,9.7 C80.8,9.1 80.7,8.5 80.5,8 C80.3,7.5 80,7 79.5,6.6 C79.1,6.2 78.6,5.9 78.1,5.6 C77.6,5.3 77,5.3 76.4,5.3 L72,5.3 L72,5.2 Z" id="Shape" fill-rule="nonzero"></path>
                <path d="M110.2,23 L105.8,23 L105.8,7.1 C105.8,6.8 105.7,6.5 105.6,6.2 C105.5,5.9 105.3,5.7 105.1,5.5 C104.9,5.3 104.7,5.1 104.4,5 C104.1,4.9 103.8,4.8 103.5,4.8 C103.2,4.8 102.9,4.9 102.6,5 C102.3,5.1 102.1,5.3 101.9,5.5 C101.7,5.7 101.5,5.9 101.4,6.2 C101.3,6.5 101.2,6.8 101.2,7.1 L101.2,23 L96.8,23 L96.8,7.1 C96.8,6.8 96.7,6.5 96.6,6.2 C96.5,5.9 96.3,5.7 96.1,5.5 C95.9,5.3 95.7,5.1 95.4,5 C95.1,4.9 94.8,4.8 94.5,4.8 C94.2,4.8 93.9,4.9 93.6,5 C93.3,5.1 93.1,5.3 92.9,5.5 C92.7,5.7 92.5,5.9 92.4,6.2 C92.3,6.5 92.2,6.8 92.2,7.1 L92.2,23 L88,23 L88,7.1 C88,6.2 88.2,5.3 88.5,4.5 C88.8,3.7 89.3,3 89.9,2.4 C90.5,1.8 91.2,1.3 92,1 C92.8,0.7 93.7,0.5 94.6,0.5 C95.4,0.5 96.2,0.6 97,0.9 C97.8,1.2 98.5,1.6 99.1,2.2 C99.7,1.6 100.4,1.2 101.2,0.9 C102,0.6 102.8,0.5 103.6,0.5 C104.5,0.5 105.4,0.7 106.2,1 C107,1.3 107.7,1.8 108.3,2.4 C108.9,3 109.4,3.7 109.7,4.5 C110,5.3 110.2,6.2 110.2,7.1 L110.2,23 Z" id="Path"></path>
                <polygon id="Path" points="129.4 23 114.2 23 114.2 0.8 129.4 0.8 129.4 5.2 118.6 5.2 118.6 9.6 125.9 9.6 125.9 14 118.6 14 118.6 18.4 129.4 18.4"></polygon>
                <path d="M150.4,11.9 C150.4,12.9 150.3,13.9 150,14.9 C149.7,15.8 149.4,16.7 148.9,17.5 C148.4,18.3 147.8,19.1 147.2,19.7 C146.5,20.4 145.8,21 145,21.4 C144.2,21.9 143.3,22.3 142.3,22.5 C141.3,22.7 140.4,22.9 139.3,22.9 L132.6,22.9 L132.6,0.8 L139.3,0.8 C140.3,0.8 141.3,0.9 142.3,1.2 C143.2,1.5 144.1,1.8 145,2.3 C145.9,2.8 146.6,3.4 147.2,4 C147.9,4.7 148.5,5.4 148.9,6.2 C149.4,7 149.8,7.9 150,8.9 C150.2,9.9 150.4,10.9 150.4,11.9 Z M145.9,11.9 C145.9,11 145.7,10.1 145.4,9.3 C145.1,8.5 144.6,7.8 144,7.2 C143.4,6.6 142.7,6.1 141.9,5.8 C141.1,5.4 140.2,5.3 139.3,5.3 L137,5.3 L137,18.6 L139.2,18.6 C140.1,18.6 141,18.4 141.8,18.1 C142.6,17.8 143.3,17.3 143.9,16.7 C144.5,16.1 145,15.4 145.3,14.6 C145.7,13.7 145.9,12.8 145.9,11.9 Z" id="Shape" fill-rule="nonzero"></path>
                <polygon id="Path" points="157.8 23 153.4 23 153.4 0.8 157.8 0.8"></polygon>
                <path d="M183.6,12 C183.6,13.1 183.5,14.1 183.2,15 C182.9,16 182.5,16.9 182,17.7 C181.5,18.6 180.9,19.3 180.2,20 C179.5,20.7 178.7,21.3 177.9,21.8 C177.1,22.3 176.1,22.7 175.2,23 C174.2,23.3 173.2,23.4 172.1,23.4 C171,23.4 170,23.3 169.1,23 C168.2,22.7 167.2,22.3 166.4,21.8 C165.5,21.3 164.8,20.7 164.1,20 C163.4,19.3 162.8,18.5 162.3,17.7 C161.8,16.9 161.4,15.9 161.1,15 C160.8,14 160.7,13 160.7,12 C160.7,10.9 160.8,9.9 161.1,8.9 C161.4,7.9 161.8,7 162.3,6.2 C162.8,5.4 163.4,4.6 164.1,3.9 C164.8,3.2 165.6,2.6 166.4,2.1 C167.3,1.6 168.2,1.2 169.1,0.9 C170.1,0.6 171.1,0.5 172.1,0.5 C173.1,0.5 174.2,0.6 175.2,0.9 C176.2,1.2 177.1,1.6 177.9,2.1 C178.7,2.6 179.5,3.2 180.2,3.9 C180.9,4.6 181.5,5.4 182,6.2 C182.5,7 182.9,8 183.2,8.9 C183.5,9.9 183.6,10.9 183.6,12 Z M179.2,12 C179.2,11 179,10.1 178.6,9.2 C178.2,8.3 177.7,7.6 177.1,7 C176.5,6.4 175.7,5.9 174.9,5.5 C174,5.1 173.1,4.9 172.1,4.9 C171.1,4.9 170.2,5.1 169.3,5.5 C168.4,5.9 167.7,6.4 167.1,7 C166.5,7.6 166,8.4 165.6,9.2 C165.2,10.1 165,11 165,12 C165,13 165.2,13.9 165.6,14.7 C166,15.6 166.5,16.3 167.1,16.9 C167.7,17.5 168.5,18 169.3,18.4 C170.2,18.8 171.1,19 172.1,19 C173.1,19 174,18.8 174.9,18.4 C175.8,18 176.5,17.5 177.1,16.9 C177.7,16.3 178.2,15.5 178.6,14.7 C179,13.9 179.2,13 179.2,12 Z" id="Shape" fill-rule="nonzero"></path>
            </g>
            <g id="Group" transform="translate(62.000000, 0.000000)">
                <g transform="translate(1.000000, 1.000000)" id="Path">
                    <path d="M10.9,39 C9.1,35.8 8.2,32.3 8.2,28.9 L0.2,28.9 C0.2,33.7 1.4,38.6 4,43 C5.1,44.9 7.5,45.6 9.4,44.5 C11.3,43.3 12,40.9 10.9,39 Z" fill="#00C9AF"></path>
                    <path d="M48.6,28.9 C48.6,32.4 47.7,35.9 45.9,39 C44.8,40.9 45.5,43.3 47.4,44.4 C49.3,45.5 51.7,44.8 52.8,42.9 C55.3,38.5 56.6,33.6 56.6,28.8 L48.6,28.9 Z" fill="#FD4848"></path>
                    <path d="M8.3,26.2 C8.6,23.6 9.5,21.1 10.8,18.7 L3.9,14.7 C2,17.9 0.9,21.5 0.4,25.1 C0.2,26.3 0.2,27.5 0.2,28.8 L8.2,28.8 C8.2,28 8.2,27.1 8.3,26.2 Z" fill="#8AE7D3"></path>
                    <path d="M4,14.8 L10.9,18.8 C11.8,17.3 12.8,15.9 14.1,14.6 C15.4,13.3 16.8,12.2 18.3,11.4 L14.3,4.5 C12.2,5.7 10.2,7.2 8.5,9 C6.7,10.7 5.2,12.7 4,14.8 Z" fill="#FFD777"></path>
                    <path d="M14.3,4.4 L18.3,11.3 C21.4,9.5 24.9,8.6 28.4,8.6 L28.4,0.6 C23.5,0.7 18.6,1.9 14.3,4.4 Z" fill="#FFBA4A"></path>
                    <path d="M28.4,0.7 L28.4,8.7 C30.1,8.7 31.8,8.9 33.4,9.3 L34.3,7 L33.9,9.4 C35.5,9.8 37.1,10.5 38.5,11.4 L42.5,4.5 C38.1,1.9 33.3,0.7 28.4,0.7 Z" fill="#FFBA4A"></path>
                    <path d="M42.5,4.4 L38.5,11.3 C40,12.2 41.4,13.2 42.7,14.5 C44,15.8 45,17.2 45.9,18.7 L52.8,14.7 C51.6,12.6 50.1,10.6 48.3,8.9 C46.5,7.1 44.6,5.6 42.5,4.4 Z" fill="#FF8244"></path>
                    <path d="M52.8,14.8 L45.9,18.8 C47.2,21.1 48.1,23.7 48.4,26.3 C48.5,27.2 48.6,28.1 48.6,28.9 L56.6,28.9 C56.6,27.7 56.5,26.4 56.4,25.2 C55.9,21.5 54.7,18 52.8,14.8 Z" fill="#FF8244"></path>
                    <path d="M30.6,29.4 L31.5,23.8 L34.3,6.9 L28.3,22.9 L26.3,28.2 C25.9,29.4 26.7,30.7 27.9,31 C29,31.4 30.4,30.7 30.6,29.4 Z" fill="#808080"></path>
                    <path d="M31.5,23.9 L30.6,29.5 C30.4,30.7 29,31.4 27.8,31.1 C26.6,30.8 25.8,29.5 26.2,28.3 L28.2,23 C26.8,23 25.3,23.6 24.2,24.7 C21.9,27 21.9,30.7 24.2,33 C26.5,35.3 30.2,35.3 32.5,33 C34.8,30.7 34.8,27 32.5,24.7 C32.2,24.4 31.9,24.1 31.5,23.9 Z" fill="#E6E6E6"></path>
                    <polygon fill="#8AE7D3" points="21.5 41.3 35.2 41.3 35.2 45 21.5 45"></polygon>
                </g>
                <path d="M9.5,11.1 C9.8,11.1 10.1,11 10.3,10.8 C10.8,10.4 10.8,9.6 10.3,9.2 C9.9,8.7 9.1,8.7 8.7,9.2 C8.7,9.2 8.7,9.2 8.7,9.2 L9.5,10 L8.7,9.2 C8.3,9.6 8.3,10.4 8.7,10.8 C8.9,11 9.2,11.1 9.5,11.1 Z" id="Path" fill="#000000"></path>
                <path d="M58.5,26 C57.7,19.6 54.7,13.6 50.2,9.1 C44.7,3.6 37.3,0.5 29.5,0.5 C23.4,0.5 17.5,2.4 12.5,5.9 C12,6.3 11.9,7 12.2,7.5 C12.6,8 13.3,8.1 13.8,7.8 C14.2,7.5 14.5,7.3 14.9,7 L17.7,11.9 C16.5,12.7 15.3,13.6 14.3,14.7 C13.2,15.8 12.3,16.9 11.5,18.1 L6.6,15.3 C7.1,14.5 7.7,13.7 8.3,12.9 C8.7,12.4 8.6,11.7 8.1,11.3 C7.6,10.9 6.9,11 6.5,11.5 C3.2,15.7 1.1,20.7 0.4,26 C-0.5,32.4 0.8,39 4,44.5 C4.9,46.1 6.7,47.1 8.4,47.1 C9.3,47.1 10.1,46.9 10.9,46.4 C12.1,45.7 12.9,44.6 13.3,43.3 C13.7,42 13.5,40.6 12.8,39.4 C10.7,35.7 9.9,31.6 10.4,27.4 C11,23.2 12.8,19.4 15.8,16.4 C19.4,12.8 24.2,10.8 29.3,10.8 C30.5,10.8 31.6,10.9 32.8,11.1 L28.3,22.9 C26.8,23.1 25.4,23.8 24.4,24.9 C23.1,26.2 22.3,28 22.3,29.9 C22.3,31.8 23,33.5 24.4,34.9 C25.8,36.3 27.6,36.9 29.4,36.9 C31.2,36.9 33,36.2 34.4,34.9 C35.7,33.6 36.5,31.8 36.5,29.9 C36.5,28 35.8,26.3 34.4,24.9 C34.2,24.7 34,24.5 33.8,24.4 L35.8,11.9 C38.4,12.8 40.9,14.4 42.9,16.4 C45.9,19.4 47.8,23.2 48.3,27.4 C48.9,31.6 48,35.8 45.9,39.4 C44.5,41.8 45.3,45 47.8,46.4 C48.6,46.9 49.5,47.1 50.3,47.1 C52.1,47.1 53.8,46.2 54.7,44.5 C58,39 59.3,32.4 58.5,26 Z M10.9,40.6 C11.3,41.3 11.4,42 11.2,42.7 C11,43.4 10.5,44 9.9,44.4 C8.5,45.2 6.8,44.7 6,43.4 C3.8,39.6 2.6,35.4 2.4,31 L8.1,31 C8.2,34.4 9.2,37.6 10.9,40.6 Z M8.2,27.1 C8.1,27.6 8.1,28.2 8,28.7 L2.3,28.7 C2.3,27.9 2.4,27.1 2.5,26.3 C2.9,23.1 3.9,20.1 5.3,17.3 L10.2,20.1 C9.3,22.3 8.5,24.7 8.2,27.1 Z M31.4,24.7 C31.4,24.7 31.4,24.7 31.4,24.7 L30.5,30.3 C30.5,30.6 30.3,30.7 30.1,30.8 C29.8,31 29.4,31 29.1,31 C28.8,30.9 28.5,30.7 28.3,30.4 C28.2,30.2 28.1,30 28.2,29.8 L30.2,24.5 C30.2,24.5 30.2,24.5 30.2,24.5 L32.2,19.2 L31.4,24.7 Z M34.1,29.9 C34.1,31.2 33.6,32.3 32.7,33.2 C30.9,35 27.9,35 26,33.2 C25.1,32.3 24.6,31.1 24.6,29.9 C24.6,28.7 25.1,27.5 26,26.6 C26.4,26.2 26.8,25.9 27.3,25.7 L26.1,29 C25.8,29.8 25.9,30.7 26.3,31.5 C26.7,32.4 27.6,33 28.5,33.3 C28.8,33.4 29.1,33.4 29.4,33.4 C30.1,33.4 30.8,33.2 31.3,32.8 C32.1,32.3 32.6,31.6 32.7,30.7 L33.3,27.3 C33.8,28 34.1,28.9 34.1,29.9 Z M16.9,5.9 C20.4,4.1 24.3,3 28.3,2.9 L28.3,8.6 C25.3,8.8 22.4,9.5 19.8,10.9 L16.9,5.9 Z M35.5,6.9 C34.9,6.7 34.3,7.1 34.1,7.6 L33.6,8.9 C32.6,8.7 31.5,8.6 30.5,8.5 L30.5,2.8 C34.5,3 38.4,4 41.9,5.8 L39,10.7 C38.1,10.2 37.1,9.8 36.1,9.5 L36.3,8.1 C36.5,7.6 36.1,7.1 35.5,6.9 Z M41.1,12 L44,7.1 C45.7,8.2 47.2,9.4 48.6,10.8 C50,12.2 51.3,13.8 52.3,15.4 L47.4,18.3 C46.6,17.1 45.7,15.9 44.6,14.9 C43.4,13.7 42.3,12.8 41.1,12 Z M48.4,20.2 L53.3,17.3 C54.7,20.1 55.7,23.1 56.1,26.3 C56.2,27.1 56.3,27.9 56.3,28.7 L50.6,28.7 C50.6,28.1 50.5,27.6 50.4,27.1 C50.3,24.7 49.5,22.3 48.4,20.2 Z M52.8,43.4 C52,44.8 50.3,45.2 48.9,44.4 C47.5,43.6 47.1,41.9 47.9,40.5 C49.6,37.6 50.5,34.3 50.7,31 L56.4,31 C56.2,35.3 55,39.5 52.8,43.4 Z" id="Shape" fill="#000000" fill-rule="nonzero"></path>
                <path d="M36.3,41.1 L22.5,41.1 C21.9,41.1 21.4,41.6 21.4,42.2 L21.4,45.9 C21.4,46.5 21.9,47 22.5,47 L36.2,47 C36.8,47 37.3,46.5 37.3,45.9 L37.3,42.2 C37.4,41.6 36.9,41.1 36.3,41.1 Z M35.1,44.8 L23.7,44.8 L23.7,43.4 L35.2,43.4 L35.2,44.8 L35.1,44.8 Z" id="Shape" fill="#000000" fill-rule="nonzero"></path>
                <path d="M12.5,28.7 C11.9,28.7 11.4,29.2 11.4,29.8 C11.4,30.4 11.9,30.9 12.5,30.9 C13.1,30.9 13.6,30.4 13.6,29.8 C13.6,29.2 13.1,28.7 12.5,28.7 Z" id="Path" fill="#000000"></path>
                <path d="M21.9,14.6 C21.6,14 20.9,13.8 20.3,14.2 C19.8,14.5 19.6,15.2 19.9,15.8 C20.1,16.2 20.5,16.4 20.9,16.4 C21.1,16.4 21.3,16.4 21.5,16.2 C22.1,15.9 22.3,15.2 21.9,14.6 Z" id="Path" fill="#000000"></path>
                <path d="M38.4,14.2 C37.9,13.9 37.2,14.1 36.8,14.6 C36.5,15.1 36.7,15.8 37.2,16.2 C37.4,16.3 37.6,16.4 37.8,16.4 C38.2,16.4 38.6,16.2 38.8,15.8 C39.2,15.2 39,14.5 38.4,14.2 Z" id="Path" fill="#000000"></path>
                <path d="M46.3,31 C47,31 47.5,30.5 47.5,29.9 C47.5,29.3 47,28.8 46.4,28.8 C45.8,28.8 45.3,29.3 45.3,29.9 C45.2,30.5 45.7,31 46.3,31 Z" id="Path" fill="#000000"></path>
                <path d="M25.4,48.2 C24.7,48.2 24.2,48.7 24.2,49.3 C24.2,49.9 24.7,50.4 25.3,50.4 C25.9,50.4 26.4,49.9 26.4,49.3 C26.6,48.7 26,48.2 25.4,48.2 Z" id="Path" fill="#000000"></path>
                <path d="M33.4,48.2 L28.7,48.2 C28.1,48.2 27.6,48.7 27.6,49.3 C27.6,49.9 28.1,50.4 28.7,50.4 L33.4,50.4 C34,50.4 34.5,49.9 34.5,49.3 C34.6,48.7 34,48.2 33.4,48.2 Z" id="Path" fill="#000000"></path>
            </g>
        </g>
    </g>
</svg>
