<?xml version="1.0" encoding="utf-8"?>
<!-- Generator: Adobe Illustrator 22.0.0, SVG Export Plug-In . SVG Version: 6.00 Build 0)  -->
<svg version="1.1" id="Capa_1" xmlns="http://www.w3.org/2000/svg" xmlns:xlink="http://www.w3.org/1999/xlink" x="0px" y="0px"
	 viewBox="0 0 50 50" style="enable-background:new 0 0 50 50;" xml:space="preserve">
<style type="text/css">
	.st0{fill:#FFFFFF;}
</style>
<g>
	<g>
		<path class="st0" d="M43.2,47.5H6.8c-2.4,0-4.3-1.9-4.3-4.3V6.8c0-2.4,1.9-4.3,4.3-4.3h36.4c2.4,0,4.3,1.9,4.3,4.3v36.4
			C47.5,45.6,45.6,47.5,43.2,47.5z M6.8,4.2c-1.4,0-2.6,1.2-2.6,2.6v36.4c0,1.4,1.2,2.6,2.6,2.6h36.4c1.4,0,2.6-1.2,2.6-2.6V6.8
			c0-1.4-1.2-2.6-2.6-2.6H6.8z"/>
	</g>
	<g>
		<path class="st0" d="M37.1,34H12.9c-1.7,0-3,1.4-3,3c0,1.7,1.4,3,3,3h24.2c1.7,0,3-1.4,3-3C40.1,35.4,38.7,34,37.1,34z"/>
		<path class="st0" d="M37.1,22H12.9c-1.7,0-3,1.4-3,3c0,1.7,1.4,3,3,3h24.2c1.7,0,3-1.4,3-3C40.1,23.3,38.7,22,37.1,22z"/>
		<path class="st0" d="M12.9,16h24.2c1.7,0,3-1.4,3-3s-1.4-3-3-3H12.9c-1.7,0-3,1.4-3,3S11.3,16,12.9,16z"/>
	</g>
</g>
</svg>
