
<svg width="166px" height="89px" viewBox="0 0 166 89" version="1.1" xmlns="http://www.w3.org/2000/svg" xmlns:xlink="http://www.w3.org/1999/xlink">
    <g id="Page-1" stroke="none" stroke-width="1" fill="none" fill-rule="evenodd">
        <g id="iconavanzado">
            <g id="Group" transform="translate(0.000000, 65.000000)" fill="#101010">
                <path d="M18,22.9 L13.6,22.9 L13.6,18.5 L4.7,18.5 L4.7,22.9 L0.3,22.9 L0.3,9.6 C0.3,8.4 0.5,7.2 1,6.1 C1.5,5 2.1,4.1 2.9,3.3 C3.7,2.5 4.6,1.9 5.7,1.4 C6.8,0.9 7.9,0.7 9.2,0.7 C10.4,0.7 11.6,0.9 12.7,1.4 C13.8,1.9 14.7,2.5 15.5,3.3 C16.3,4.1 16.9,5 17.4,6.1 C17.9,7.2 18.1,8.3 18.1,9.6 L18.1,22.9 L18,22.9 Z M13.5,14 L13.5,9.6 C13.5,9 13.4,8.4 13.2,7.9 C13,7.4 12.6,6.9 12.2,6.5 C11.8,6.1 11.3,5.8 10.8,5.5 C10.3,5.3 9.7,5.2 9.1,5.2 C8.5,5.2 7.9,5.3 7.4,5.5 C6.9,5.7 6.4,6 6,6.5 C5.6,6.9 5.3,7.4 5,7.9 C4.8,8.4 4.7,9 4.7,9.6 L4.7,14 L13.5,14 Z" id="Shape" fill-rule="nonzero"></path>
                <polygon id="Path" points="38.3 0.7 31 22.9 26.6 22.9 19.3 0.7 24.4 0.7 28.8 15.5 33.2 0.7"></polygon>
                <path d="M57.5,22.9 L53.1,22.9 L53.1,18.5 L44.2,18.5 L44.2,22.9 L39.8,22.9 L39.8,9.6 C39.8,8.4 40,7.2 40.5,6.1 C41,5 41.6,4.1 42.4,3.3 C43.2,2.5 44.1,1.9 45.2,1.4 C46.3,0.9 47.4,0.7 48.7,0.7 C49.9,0.7 51.1,0.9 52.2,1.4 C53.3,1.9 54.2,2.5 55,3.3 C55.8,4.1 56.4,5 56.9,6.1 C57.4,7.2 57.6,8.3 57.6,9.6 L57.6,22.9 L57.5,22.9 Z M53.1,14 L53.1,9.6 C53.1,9 53,8.4 52.8,7.9 C52.6,7.4 52.2,6.9 51.8,6.5 C51.4,6.1 50.9,5.8 50.4,5.5 C49.9,5.3 49.3,5.2 48.7,5.2 C48.1,5.2 47.5,5.3 47,5.5 C46.5,5.7 46,6 45.6,6.5 C45.2,6.9 44.9,7.4 44.6,7.9 C44.4,8.4 44.3,9 44.3,9.6 L44.3,14 L53.1,14 Z" id="Shape" fill-rule="nonzero"></path>
                <polygon id="Path" points="79.1 22.9 74.3 22.9 65.7 8.3 65.7 22.9 61.3 22.9 61.3 0.7 66.1 0.7 74.7 15.3 74.7 0.7 79.1 0.7"></polygon>
                <polygon id="Path" points="99.1 22.9 81.9 22.9 91.4 5.1 81.9 5.1 81.9 0.7 99.1 0.7 89.6 18.5 99.1 18.5 99.1 22.9"></polygon>
                <path d="M119.4,22.9 L115,22.9 L115,18.5 L106.1,18.5 L106.1,22.9 L101.7,22.9 L101.7,9.6 C101.7,8.4 101.9,7.2 102.4,6.1 C102.9,5 103.5,4.1 104.3,3.3 C105.1,2.5 106,1.9 107.1,1.4 C108.2,0.9 109.3,0.7 110.6,0.7 C111.9,0.7 113,0.9 114.1,1.4 C115.2,1.9 116.1,2.5 116.9,3.3 C117.7,4.1 118.3,5 118.8,6.1 C119.3,7.2 119.5,8.3 119.5,9.6 L119.5,22.9 L119.4,22.9 Z M115,14 L115,9.6 C115,9 114.9,8.4 114.7,7.9 C114.5,7.4 114.2,6.9 113.7,6.5 C113.3,6.1 112.8,5.8 112.3,5.5 C111.8,5.3 111.2,5.2 110.6,5.2 C110,5.2 109.4,5.3 108.9,5.5 C108.4,5.7 107.9,6 107.5,6.5 C107.1,6.9 106.8,7.4 106.5,7.9 C106.3,8.4 106.2,9 106.2,9.6 L106.2,14 L115,14 Z" id="Shape" fill-rule="nonzero"></path>
                <path d="M141.1,11.8 C141.1,12.8 141,13.8 140.7,14.8 C140.4,15.7 140.1,16.6 139.6,17.4 C139.1,18.2 138.5,19 137.9,19.6 C137.2,20.3 136.5,20.9 135.7,21.3 C134.9,21.8 134,22.2 133,22.4 C132.1,22.7 131.1,22.8 130,22.8 L123.3,22.8 L123.3,0.7 L130,0.7 C131,0.7 132,0.8 133,1.1 C133.9,1.4 134.8,1.7 135.7,2.2 C136.5,2.7 137.3,3.3 137.9,3.9 C138.6,4.6 139.2,5.3 139.6,6.1 C140.1,6.9 140.5,7.8 140.7,8.8 C140.9,9.8 141.1,10.8 141.1,11.8 Z M136.6,11.8 C136.6,10.9 136.4,10 136.1,9.2 C135.8,8.4 135.3,7.7 134.7,7.1 C134.1,6.5 133.4,6 132.6,5.7 C131.8,5.3 130.9,5.2 130,5.2 L127.8,5.2 L127.8,18.5 L130,18.5 C130.9,18.5 131.8,18.3 132.6,18 C133.4,17.7 134.1,17.2 134.7,16.6 C135.3,16 135.8,15.3 136.1,14.5 C136.5,13.6 136.6,12.7 136.6,11.8 Z" id="Shape" fill-rule="nonzero"></path>
                <path d="M165.8,11.9 C165.8,13 165.7,14 165.4,14.9 C165.1,15.9 164.7,16.8 164.2,17.6 C163.7,18.5 163.1,19.2 162.4,19.9 C161.7,20.6 160.9,21.2 160.1,21.7 C159.3,22.2 158.3,22.6 157.4,22.9 C156.4,23.2 155.4,23.3 154.3,23.3 C153.2,23.3 152.2,23.2 151.3,22.9 C150.4,22.6 149.4,22.2 148.6,21.7 C147.7,21.2 147,20.6 146.3,19.9 C145.6,19.2 145,18.4 144.5,17.6 C144,16.8 143.6,15.8 143.3,14.9 C143,13.9 142.9,12.9 142.9,11.9 C142.9,10.8 143,9.8 143.3,8.8 C143.6,7.8 144,6.9 144.5,6.1 C145,5.3 145.6,4.5 146.3,3.8 C147,3.1 147.8,2.5 148.6,2 C149.5,1.5 150.4,1.1 151.3,0.8 C152.3,0.5 153.3,0.4 154.3,0.4 C155.3,0.4 156.4,0.5 157.4,0.8 C158.4,1.1 159.3,1.5 160.1,2 C160.9,2.5 161.7,3.1 162.4,3.8 C163.1,4.5 163.7,5.3 164.2,6.1 C164.7,6.9 165.1,7.9 165.4,8.8 C165.7,9.8 165.8,10.8 165.8,11.9 Z M161.4,11.9 C161.4,10.9 161.2,10 160.8,9.1 C160.4,8.2 159.9,7.5 159.3,6.9 C158.7,6.3 157.9,5.8 157.1,5.4 C156.2,5 155.3,4.8 154.3,4.8 C153.3,4.8 152.4,5 151.5,5.4 C150.6,5.8 149.9,6.3 149.3,6.9 C148.7,7.5 148.2,8.3 147.8,9.1 C147.4,10 147.2,10.9 147.2,11.9 C147.2,12.9 147.4,13.8 147.8,14.6 C148.2,15.5 148.7,16.2 149.3,16.8 C149.9,17.4 150.7,17.9 151.5,18.3 C152.4,18.7 153.3,18.9 154.3,18.9 C155.3,18.9 156.2,18.7 157.1,18.3 C158,17.9 158.7,17.4 159.3,16.8 C159.9,16.2 160.4,15.4 160.8,14.6 C161.2,13.8 161.4,12.8 161.4,11.9 Z" id="Shape" fill-rule="nonzero"></path>
            </g>
            <g id="Group" transform="translate(57.000000, 0.000000)">
                <path d="M48.8,32.2 L47,4.7 L36.8,1.5 L32.6,5.7 L32.6,13.7 C33.5,14.6 34,15.1 34.8,15.9 L37.4,15.9 L35.2,32.1 L48.8,32.1 L48.8,32.2 Z" id="Path" fill="#FFE477"></path>
                <path d="M35.7,32.2 L35.1,37.6 L20.3,37.6 L13.6,29.9 L1.3,29.9 L1.3,49.8 L46.3,49.8 C47.7,48.4 48.4,47.7 49.8,46.3 L48.4,32.1 L35.7,32.1 L35.7,32.2 Z" id="Path" fill="#FF3F62"></path>
                <path d="M37.8,15.9 C36.9,15 36.4,14.5 35.6,13.7 L35.6,5.7 L39.1,2.2 L36.9,1.5 L32.7,5.7 L32.7,13.7 C33.6,14.6 34.1,15.1 34.9,15.9 L37.5,15.9 L35.3,32.1 L38.2,32.1 L40.4,15.9 L37.8,15.9 Z" id="Path" fill="#FFB655"></path>
                <polygon id="Path" fill="#C70024" points="38.1 37.6 38.7 32.2 35.8 32.2 35.2 37.6"></polygon>
                <polygon id="Path" fill="#C70024" points="1.3 29.9 4.2 29.9 4.2 49.8 1.3 49.8"></polygon>
                <path d="M36.6,16.7 L34.4,32.9 L49.6,32.9 L47.8,4.1 L36.7,0.6 L31.9,5.4 L31.9,14 L34.6,16.7 L36.6,16.7 Z M33.4,11.5 L37.8,11.5 L39,10.3 L39,6.9 L35.5,6.9 L35.5,8.4 L37.5,8.4 L37.5,9.8 L37.2,10.1 L33.5,10.1 L33.5,6.1 L37.2,2.4 L46.5,5.3 L48.2,31.5 L36.2,31.5 L38.2,16.7 L41.7,16.7 L41.7,15.2 L35.3,15.2 L33.5,13.4 L33.5,11.5 L33.4,11.5 Z" id="Shape" fill="#000000" fill-rule="nonzero"></path>
                <polygon id="Path" fill="#000000" points="18.1 23.5 21.2 20.4 22.2 21.4 19.1 24.5"></polygon>
                <polygon id="Path" fill="#000000" points="21.6 30.3 25.8 30.3 25.8 31.8 21.6 31.8"></polygon>
                <polygon id="Path" fill="#000000" points="10.9 16.9 12.4 16.9 12.4 21.1 10.9 21.1"></polygon>
                <polygon id="Path" fill="#000000" points="49.3 34.1 47.8 34.2 49 46.1 46 49.1 2 49.1 2 30.7 13.3 30.7 19.3 37.6 16.6 40.3 17.6 41.3 20.6 38.3 34.8 38.3 37.6 41.1 38.6 40.1 35.8 37.3 36.1 34.2 34.6 34 34.3 36.8 20.6 36.8 13.9 29.1 0.5 29.1 0.5 50.5 46.6 50.5 50.5 46.6"></polygon>
                <g transform="translate(21.000000, 15.000000)" fill="#FFFFFF" fill-rule="nonzero" id="Shape">
                    <path d="M13.7,25.8 L5,25.8 L5,24.3 L13.8,24.3 L13.8,25.8 L13.7,25.8 Z M4,25.8 L2.5,25.8 L2.5,24.3 L4,24.3 L4,25.8 Z M1.6,25.8 L0.1,25.8 L0.1,24.3 L1.6,24.3 L1.6,25.8 Z"></path>
                    <path d="M25.5,30.6 L24.9,24.6 L26.4,24.5 L27,30.5 L25.5,30.6 Z M24.8,23.6 L24.7,22.1 L26.2,22 L26.3,23.5 L24.8,23.6 Z M24.6,21.2 L24.5,19.7 L26,19.6 L26,21 L24.6,21.2 Z"></path>
                    <path d="M24.5,14.8 L23.9,5.9 L25.4,5.8 L26,14.7 L24.5,14.8 Z M23.9,4.9 L23.8,3.4 L25.3,3.3 L25.4,4.8 L23.9,4.9 Z M23.7,2.4 L23.6,0.9 L25.1,0.8 L25.2,2.3 L23.7,2.4 Z"></path>
                </g>
            </g>
        </g>
    </g>
</svg>
