<svg width="46px" height="46px" viewBox="0 0 46 46" version="1.1" xmlns="http://www.w3.org/2000/svg" xmlns:xlink="http://www.w3.org/1999/xlink">
    <g id="Page-1" stroke="none" stroke-width="1" fill="none" fill-rule="evenodd">
        <g id="Artboard" transform="translate(-100.000000, -76.000000)" fill="#FFFFFF">
            <g id="iconinicio" transform="translate(100.000000, 76.000000)">
                <path d="M41.2,45.5 L4.8,45.5 C2.4,45.5 0.5,43.6 0.5,41.2 L0.5,4.8 C0.5,2.4 2.4,0.5 4.8,0.5 L41.2,0.5 C43.6,0.5 45.5,2.4 45.5,4.8 L45.5,41.2 C45.5,43.6 43.6,45.5 41.2,45.5 Z M4.8,2.2 C3.4,2.2 2.2,3.4 2.2,4.8 L2.2,41.2 C2.2,42.6 3.4,43.8 4.8,43.8 L41.2,43.8 C42.6,43.8 43.8,42.6 43.8,41.2 L43.8,4.8 C43.8,3.4 42.6,2.2 41.2,2.2 L4.8,2.2 Z" id="Shape" fill-rule="nonzero"></path>
                <g id="Group" transform="translate(7.000000, 8.000000)">
                    <path d="M28.1,24 L3.9,24 C2.2,24 0.9,25.4 0.9,27 C0.9,28.7 2.3,30 3.9,30 L28.1,30 C29.8,30 31.1,28.6 31.1,27 C31.1,25.4 29.7,24 28.1,24 Z" id="Path"></path>
                    <path d="M28.1,12 L3.9,12 C2.2,12 0.9,13.4 0.9,15 C0.9,16.7 2.3,18 3.9,18 L28.1,18 C29.8,18 31.1,16.6 31.1,15 C31.1,13.3 29.7,12 28.1,12 Z" id="Path"></path>
                    <path d="M3.9,6 L28.1,6 C29.8,6 31.1,4.6 31.1,3 C31.1,1.4 29.7,0 28.1,0 L3.9,0 C2.2,0 0.9,1.4 0.9,3 C0.9,4.6 2.3,6 3.9,6 Z" id="Path"></path>
                </g>
            </g>
        </g>
    </g>
</svg>
